<svg xmlns="http://www.w3.org/2000/svg" viewBox="0 0 1200 780" font-family="Segoe UI, Helvetica, Arial, sans-serif">
<rect width="1200" height="780" fill="#f6f8fa"/>
<g stroke="#c2c8d0" stroke-width="1" opacity="0.7">
<line x1="644.1" y1="208.0" x2="571.8" y2="146.8"/>
<line x1="644.1" y1="208.0" x2="606.8" y2="172.0"/>
<line x1="644.1" y1="208.0" x2="688.6" y2="190.1"/>
<line x1="644.1" y1="208.0" x2="559.3" y2="226.0"/>
<line x1="644.1" y1="208.0" x2="633.1" y2="174.5"/>
<line x1="644.1" y1="208.0" x2="639.0" y2="133.6"/>
<line x1="644.1" y1="208.0" x2="771.0" y2="173.4"/>
<line x1="644.1" y1="208.0" x2="480.2" y2="200.3"/>
<line x1="644.1" y1="208.0" x2="719.0" y2="146.2"/>
<line x1="644.1" y1="208.0" x2="716.7" y2="158.3"/>
<line x1="644.1" y1="208.0" x2="660.5" y2="173.9"/>
<line x1="644.1" y1="208.0" x2="569.7" y2="174.1"/>
<line x1="644.1" y1="208.0" x2="733.5" y2="203.8"/>
<line x1="644.1" y1="208.0" x2="752.3" y2="196.2"/>
<line x1="644.1" y1="208.0" x2="652.1" y2="144.4"/>
<line x1="644.1" y1="208.0" x2="566.1" y2="191.1"/>
<line x1="644.1" y1="208.0" x2="710.4" y2="179.0"/>
<line x1="644.1" y1="208.0" x2="537.2" y2="187.7"/>
<line x1="644.1" y1="208.0" x2="523.7" y2="163.4"/>
<line x1="644.1" y1="208.0" x2="501.2" y2="146.3"/>
<line x1="644.1" y1="208.0" x2="496.5" y2="214.7"/>
<line x1="644.1" y1="208.0" x2="616.6" y2="160.3"/>
<line x1="644.1" y1="208.0" x2="679.9" y2="158.2"/>
<line x1="644.1" y1="208.0" x2="742.9" y2="159.0"/>
<line x1="795.2" y1="302.6" x2="644.1" y2="208.0"/>
<line x1="537.4" y1="268.8" x2="644.1" y2="208.0"/>
<line x1="809.1" y1="273.4" x2="644.1" y2="208.0"/>
<line x1="781.7" y1="278.9" x2="644.1" y2="208.0"/>
<line x1="648.9" y1="298.5" x2="644.1" y2="208.0"/>
<line x1="535.2" y1="310.4" x2="644.1" y2="208.0"/>
<line x1="688.6" y1="190.1" x2="771.0" y2="173.4"/>
<line x1="771.0" y1="173.4" x2="843.4" y2="147.7"/>
<line x1="719.0" y1="146.2" x2="771.0" y2="173.4"/>
<line x1="716.7" y1="158.3" x2="771.0" y2="173.4"/>
<line x1="733.5" y1="203.8" x2="771.0" y2="173.4"/>
<line x1="752.3" y1="196.2" x2="771.0" y2="173.4"/>
<line x1="710.4" y1="179.0" x2="771.0" y2="173.4"/>
<line x1="901.1" y1="149.1" x2="771.0" y2="173.4"/>
<line x1="742.9" y1="159.0" x2="843.4" y2="147.7"/>
<line x1="559.3" y1="226.0" x2="662.9" y2="229.4"/>
<line x1="537.2" y1="187.7" x2="559.3" y2="226.0"/>
<line x1="458.6" y1="246.8" x2="559.3" y2="226.0"/>
<line x1="688.6" y1="190.1" x2="662.9" y2="229.4"/>
<line x1="633.1" y1="174.5" x2="662.9" y2="229.4"/>
<line x1="566.1" y1="191.1" x2="662.9" y2="229.4"/>
<line x1="710.4" y1="179.0" x2="662.9" y2="229.4"/>
<line x1="821.7" y1="265.1" x2="662.9" y2="229.4"/>
<line x1="618.8" y1="307.4" x2="662.9" y2="229.4"/>
<line x1="537.2" y1="187.7" x2="480.2" y2="200.3"/>
<line x1="346.5" y1="189.7" x2="480.2" y2="200.3"/>
<line x1="639.0" y1="133.6" x2="571.8" y2="146.8"/>
<line x1="569.7" y1="174.1" x2="571.8" y2="146.8"/>
<line x1="529.6" y1="155.8" x2="571.8" y2="146.8"/>
<line x1="513.4" y1="90.9" x2="571.8" y2="146.8"/>
<line x1="639.0" y1="133.6" x2="679.9" y2="158.2"/>
<line x1="719.0" y1="146.2" x2="679.9" y2="158.2"/>
<line x1="716.7" y1="158.3" x2="679.9" y2="158.2"/>
<line x1="652.1" y1="144.4" x2="679.9" y2="158.2"/>
<line x1="688.6" y1="190.1" x2="606.8" y2="172.0"/>
<line x1="557.3" y1="126.0" x2="606.8" y2="172.0"/>
<line x1="639.0" y1="133.6" x2="616.6" y2="160.3"/>
<line x1="660.5" y1="173.9" x2="616.6" y2="160.3"/>
<line x1="569.7" y1="174.1" x2="616.6" y2="160.3"/>
<line x1="652.1" y1="144.4" x2="616.6" y2="160.3"/>
<line x1="554.9" y1="134.5" x2="616.6" y2="160.3"/>
<line x1="688.6" y1="190.1" x2="752.3" y2="196.2"/>
<line x1="688.6" y1="190.1" x2="733.5" y2="203.8"/>
<line x1="719.0" y1="146.2" x2="610.8" y2="143.5"/>
<line x1="716.7" y1="158.3" x2="719.0" y2="146.2"/>
<line x1="792.4" y1="96.5" x2="719.0" y2="146.2"/>
<line x1="633.1" y1="174.5" x2="610.8" y2="143.5"/>
<line x1="639.0" y1="133.6" x2="610.8" y2="143.5"/>
<line x1="716.7" y1="158.3" x2="610.8" y2="143.5"/>
<line x1="652.1" y1="144.4" x2="610.8" y2="143.5"/>
<line x1="566.1" y1="191.1" x2="610.8" y2="143.5"/>
<line x1="710.4" y1="179.0" x2="610.8" y2="143.5"/>
<line x1="557.3" y1="126.0" x2="610.8" y2="143.5"/>
<line x1="503.3" y1="124.9" x2="610.8" y2="143.5"/>
<line x1="554.9" y1="134.5" x2="610.8" y2="143.5"/>
<line x1="521.9" y1="109.5" x2="610.8" y2="143.5"/>
<line x1="688.6" y1="190.1" x2="716.7" y2="158.3"/>
<line x1="814.3" y1="115.5" x2="716.7" y2="158.3"/>
<line x1="688.6" y1="190.1" x2="710.4" y2="179.0"/>
<line x1="811.5" y1="141.1" x2="710.4" y2="179.0"/>
<line x1="537.2" y1="187.7" x2="688.6" y2="190.1"/>
<line x1="825.1" y1="179.2" x2="688.6" y2="190.1"/>
<line x1="529.6" y1="155.8" x2="633.1" y2="174.5"/>
<line x1="681.1" y1="119.6" x2="633.1" y2="174.5"/>
<line x1="529.6" y1="155.8" x2="566.1" y2="191.1"/>
<line x1="428.4" y1="185.8" x2="566.1" y2="191.1"/>
<line x1="639.0" y1="133.6" x2="742.9" y2="159.0"/>
<line x1="639.0" y1="133.6" x2="594.0" y2="92.7"/>
<line x1="554.9" y1="134.5" x2="639.0" y2="133.6"/>
<line x1="650.9" y1="77.6" x2="639.0" y2="133.6"/>
<line x1="557.3" y1="126.0" x2="594.0" y2="92.7"/>
<line x1="652.1" y1="144.4" x2="660.5" y2="173.9"/>
<line x1="554.9" y1="134.5" x2="652.1" y2="144.4"/>
<line x1="696.4" y1="90.0" x2="652.1" y2="144.4"/>
<line x1="529.6" y1="155.8" x2="569.7" y2="174.1"/>
<line x1="537.2" y1="187.7" x2="501.2" y2="146.3"/>
<line x1="557.3" y1="126.0" x2="501.2" y2="146.3"/>
<line x1="501.2" y1="146.3" x2="452.0" y2="122.5"/>
<line x1="501.2" y1="146.3" x2="521.9" y2="109.5"/>
<line x1="501.2" y1="146.3" x2="382.5" y2="101.7"/>
<line x1="452.0" y1="122.5" x2="382.5" y2="101.7"/>
<line x1="299.1" y1="70.0" x2="382.5" y2="101.7"/>
<line x1="554.9" y1="134.5" x2="452.0" y2="122.5"/>
<line x1="529.6" y1="155.8" x2="452.0" y2="122.5"/>
<line x1="537.2" y1="187.7" x2="523.7" y2="163.4"/>
<line x1="523.7" y1="163.4" x2="557.3" y2="126.0"/>
<line x1="523.7" y1="163.4" x2="434.3" y2="163.6"/>
<line x1="523.7" y1="163.4" x2="503.3" y2="124.9"/>
<line x1="523.7" y1="163.4" x2="554.9" y2="134.5"/>
<line x1="523.7" y1="163.4" x2="529.6" y2="155.8"/>
<line x1="537.2" y1="187.7" x2="434.3" y2="163.6"/>
<line x1="529.6" y1="155.8" x2="554.9" y2="134.5"/>
<line x1="537.2" y1="187.7" x2="529.6" y2="155.8"/>
<line x1="537.2" y1="187.7" x2="496.5" y2="214.7"/>
<line x1="496.5" y1="214.7" x2="370.9" y2="220.3"/>
<line x1="755.4" y1="316.8" x2="977.2" y2="362.6"/>
<line x1="755.4" y1="316.8" x2="987.1" y2="353.2"/>
<line x1="733.6" y1="354.2" x2="755.4" y2="316.8"/>
<line x1="795.2" y1="302.6" x2="755.4" y2="316.8"/>
<line x1="537.4" y1="268.8" x2="755.4" y2="316.8"/>
<line x1="809.1" y1="273.4" x2="755.4" y2="316.8"/>
<line x1="781.7" y1="278.9" x2="755.4" y2="316.8"/>
<line x1="648.9" y1="298.5" x2="755.4" y2="316.8"/>
<line x1="535.2" y1="310.4" x2="755.4" y2="316.8"/>
<line x1="977.2" y1="362.6" x2="1016.6" y2="415.4"/>
<line x1="977.2" y1="362.6" x2="1090.1" y2="399.6"/>
<line x1="977.2" y1="362.6" x2="1056.9" y2="409.6"/>
<line x1="1046.3" y1="383.3" x2="977.2" y2="362.6"/>
<line x1="1067.9" y1="370.4" x2="977.2" y2="362.6"/>
<line x1="913.6" y1="359.7" x2="977.2" y2="362.6"/>
<line x1="950.1" y1="368.7" x2="977.2" y2="362.6"/>
<line x1="930.6" y1="377.9" x2="977.2" y2="362.6"/>
<line x1="951.9" y1="385.8" x2="977.2" y2="362.6"/>
<line x1="978.5" y1="375.3" x2="977.2" y2="362.6"/>
<line x1="977.2" y1="385.0" x2="977.2" y2="362.6"/>
<line x1="940.1" y1="306.2" x2="977.2" y2="362.6"/>
<line x1="990.4" y1="325.3" x2="977.2" y2="362.6"/>
<line x1="950.1" y1="325.1" x2="977.2" y2="362.6"/>
<line x1="1039.9" y1="350.3" x2="977.2" y2="362.6"/>
<line x1="1029.9" y1="340.5" x2="977.2" y2="362.6"/>
<line x1="987.1" y1="353.2" x2="1129.7" y2="349.2"/>
<line x1="987.1" y1="353.2" x2="1130.0" y2="364.6"/>
<line x1="987.1" y1="353.2" x2="1046.3" y2="383.3"/>
<line x1="987.1" y1="353.2" x2="1067.9" y2="370.4"/>
<line x1="1117.1" y1="379.6" x2="987.1" y2="353.2"/>
<line x1="913.6" y1="359.7" x2="987.1" y2="353.2"/>
<line x1="950.1" y1="368.7" x2="987.1" y2="353.2"/>
<line x1="927.6" y1="392.8" x2="987.1" y2="353.2"/>
<line x1="930.6" y1="377.9" x2="987.1" y2="353.2"/>
<line x1="951.9" y1="385.8" x2="987.1" y2="353.2"/>
<line x1="978.5" y1="375.3" x2="987.1" y2="353.2"/>
<line x1="977.2" y1="385.0" x2="987.1" y2="353.2"/>
<line x1="900.1" y1="385.2" x2="987.1" y2="353.2"/>
<line x1="940.1" y1="306.2" x2="987.1" y2="353.2"/>
<line x1="1013.4" y1="310.8" x2="987.1" y2="353.2"/>
<line x1="990.4" y1="325.3" x2="987.1" y2="353.2"/>
<line x1="950.1" y1="325.1" x2="987.1" y2="353.2"/>
<line x1="1039.9" y1="350.3" x2="987.1" y2="353.2"/>
<line x1="1029.9" y1="340.5" x2="987.1" y2="353.2"/>
<line x1="1062.3" y1="329.7" x2="987.1" y2="353.2"/>
<line x1="795.2" y1="302.6" x2="892.4" y2="364.4"/>
<line x1="795.2" y1="302.6" x2="913.6" y2="359.7"/>
<line x1="950.1" y1="368.7" x2="892.4" y2="364.4"/>
<line x1="927.6" y1="392.8" x2="892.4" y2="364.4"/>
<line x1="930.6" y1="377.9" x2="892.4" y2="364.4"/>
<line x1="951.9" y1="385.8" x2="892.4" y2="364.4"/>
<line x1="978.5" y1="375.3" x2="892.4" y2="364.4"/>
<line x1="977.2" y1="385.0" x2="892.4" y2="364.4"/>
<line x1="900.1" y1="385.2" x2="892.4" y2="364.4"/>
<line x1="913.6" y1="359.7" x2="950.1" y2="368.7"/>
<line x1="913.6" y1="359.7" x2="927.6" y2="392.8"/>
<line x1="913.6" y1="359.7" x2="930.6" y2="377.9"/>
<line x1="913.6" y1="359.7" x2="951.9" y2="385.8"/>
<line x1="913.6" y1="359.7" x2="978.5" y2="375.3"/>
<line x1="913.6" y1="359.7" x2="977.2" y2="385.0"/>
<line x1="913.6" y1="359.7" x2="900.1" y2="385.2"/>
<line x1="537.4" y1="268.8" x2="783.0" y2="245.7"/>
<line x1="537.4" y1="268.8" x2="202.9" y2="263.6"/>
<line x1="537.4" y1="268.8" x2="377.8" y2="294.2"/>
<line x1="202.9" y1="263.6" x2="114.5" y2="268.1"/>
<line x1="202.9" y1="263.6" x2="70.0" y2="257.6"/>
<line x1="202.9" y1="263.6" x2="82.3" y2="241.5"/>
<line x1="202.9" y1="263.6" x2="115.8" y2="249.7"/>
<line x1="202.9" y1="263.6" x2="123.7" y2="232.9"/>
<line x1="202.9" y1="263.6" x2="94.6" y2="286.0"/>
<line x1="202.9" y1="263.6" x2="131.1" y2="289.5"/>
<line x1="202.9" y1="263.6" x2="73.0" y2="273.1"/>
<line x1="377.8" y1="294.2" x2="294.8" y2="315.7"/>
<line x1="377.8" y1="294.2" x2="278.4" y2="300.1"/>
<line x1="783.0" y1="245.7" x2="914.8" y2="234.2"/>
<line x1="783.0" y1="245.7" x2="904.3" y2="247.8"/>
<line x1="783.0" y1="245.7" x2="905.7" y2="221.3"/>
<line x1="783.0" y1="245.7" x2="879.9" y2="232.6"/>
<line x1="904.3" y1="247.8" x2="914.8" y2="234.2"/>
<line x1="905.7" y1="221.3" x2="914.8" y2="234.2"/>
<line x1="879.9" y1="232.6" x2="914.8" y2="234.2"/>
<line x1="809.1" y1="273.4" x2="942.0" y2="290.6"/>
<line x1="809.1" y1="273.4" x2="940.1" y2="306.2"/>
<line x1="1013.4" y1="310.8" x2="942.0" y2="290.6"/>
<line x1="990.4" y1="325.3" x2="942.0" y2="290.6"/>
<line x1="940.1" y1="306.2" x2="821.7" y2="265.1"/>
<line x1="940.1" y1="306.2" x2="1070.8" y2="287.6"/>
<line x1="940.1" y1="306.2" x2="1013.4" y2="310.8"/>
<line x1="940.1" y1="306.2" x2="990.4" y2="325.3"/>
<line x1="781.7" y1="278.9" x2="950.1" y2="325.1"/>
<line x1="950.1" y1="325.1" x2="1039.9" y2="350.3"/>
<line x1="950.1" y1="325.1" x2="1029.9" y2="340.5"/>
<line x1="950.1" y1="325.1" x2="1062.3" y2="329.7"/>
<line x1="648.9" y1="298.5" x2="597.9" y2="374.9"/>
<line x1="597.9" y1="374.9" x2="618.8" y2="307.4"/>
<line x1="597.9" y1="374.9" x2="585.9" y2="408.0"/>
<line x1="597.9" y1="374.9" x2="569.6" y2="423.5"/>
<line x1="597.9" y1="374.9" x2="640.6" y2="412.7"/>
<line x1="597.9" y1="374.9" x2="534.2" y2="414.5"/>
<line x1="597.9" y1="374.9" x2="525.7" y2="398.9"/>
<line x1="597.9" y1="374.9" x2="613.2" y2="424.4"/>
<line x1="535.2" y1="310.4" x2="415.5" y2="352.9"/>
<line x1="535.2" y1="310.4" x2="335.8" y2="375.0"/>
<line x1="310.1" y1="389.1" x2="415.5" y2="352.9"/>
<line x1="335.8" y1="375.0" x2="310.1" y2="389.1"/>
<line x1="335.8" y1="375.0" x2="206.2" y2="390.5"/>
<line x1="335.8" y1="375.0" x2="291.1" y2="411.8"/>
<line x1="335.8" y1="375.0" x2="259.8" y2="408.2"/>
<line x1="335.8" y1="375.0" x2="248.6" y2="396.5"/>
<line x1="335.8" y1="375.0" x2="324.9" y2="410.1"/>
<line x1="335.8" y1="375.0" x2="248.0" y2="381.3"/>
<line x1="291.1" y1="411.8" x2="310.1" y2="389.1"/>
<line x1="259.8" y1="408.2" x2="310.1" y2="389.1"/>
<line x1="248.6" y1="396.5" x2="310.1" y2="389.1"/>
<line x1="324.9" y1="410.1" x2="310.1" y2="389.1"/>
<line x1="248.0" y1="381.3" x2="310.1" y2="389.1"/>
<line x1="112.4" y1="632.3" x2="199.6" y2="643.3"/>
<line x1="199.6" y1="643.3" x2="134.8" y2="619.5"/>
<line x1="199.6" y1="643.3" x2="248.9" y2="684.0"/>
<line x1="199.6" y1="643.3" x2="350.8" y2="646.1"/>
<line x1="199.6" y1="643.3" x2="222.3" y2="615.8"/>
<line x1="199.6" y1="643.3" x2="255.5" y2="634.4"/>
<line x1="199.6" y1="643.3" x2="173.5" y2="613.1"/>
<line x1="199.6" y1="643.3" x2="134.7" y2="662.7"/>
<line x1="199.6" y1="643.3" x2="113.7" y2="647.8"/>
<line x1="199.6" y1="643.3" x2="184.9" y2="666.4"/>
<line x1="248.9" y1="684.0" x2="244.4" y2="710.0"/>
<line x1="248.9" y1="684.0" x2="305.0" y2="702.5"/>
<line x1="350.8" y1="646.1" x2="434.3" y2="656.3"/>
<line x1="350.8" y1="646.1" x2="398.6" y2="668.5"/>
<line x1="350.8" y1="646.1" x2="391.4" y2="624.6"/>
<line x1="350.8" y1="646.1" x2="430.3" y2="638.4"/>
</g>
<circle cx="644.1" cy="208.0" r="12.8" fill="#e45756" stroke="#ffffff" stroke-width="1.2"/>
<circle cx="771.0" cy="173.4" r="8.8" fill="#e45756" stroke="#ffffff" stroke-width="1.2"/>
<circle cx="843.4" cy="147.7" r="6.3" fill="#e45756" stroke="#ffffff" stroke-width="1.2"/>
<circle cx="559.3" cy="226.0" r="7.2" fill="#eeca3b" stroke="#ffffff" stroke-width="1.2"/>
<circle cx="662.9" cy="229.4" r="8.2" fill="#eeca3b" stroke="#ffffff" stroke-width="1.2"/>
<circle cx="480.2" cy="200.3" r="6.8" fill="#e45756" stroke="#ffffff" stroke-width="1.2"/>
<circle cx="571.8" cy="146.8" r="7.6" fill="#f58518" stroke="#ffffff" stroke-width="1.2"/>
<circle cx="679.9" cy="158.2" r="7.6" fill="#e45756" stroke="#ffffff" stroke-width="1.2"/>
<circle cx="606.8" cy="172.0" r="6.8" fill="#e45756" stroke="#ffffff" stroke-width="1.2"/>
<circle cx="616.6" cy="160.3" r="7.9" fill="#f58518" stroke="#ffffff" stroke-width="1.2"/>
<circle cx="752.3" cy="196.2" r="6.8" fill="#e45756" stroke="#ffffff" stroke-width="1.2"/>
<circle cx="733.5" cy="203.8" r="6.8" fill="#e45756" stroke="#ffffff" stroke-width="1.2"/>
<circle cx="719.0" cy="146.2" r="7.9" fill="#e45756" stroke="#ffffff" stroke-width="1.2"/>
<circle cx="610.8" cy="143.5" r="9.3" fill="#f58518" stroke="#ffffff" stroke-width="1.2"/>
<circle cx="716.7" cy="158.3" r="8.2" fill="#e45756" stroke="#ffffff" stroke-width="1.2"/>
<circle cx="710.4" cy="179.0" r="7.9" fill="#e45756" stroke="#ffffff" stroke-width="1.2"/>
<circle cx="688.6" cy="190.1" r="9.1" fill="#e45756" stroke="#ffffff" stroke-width="1.2"/>
<circle cx="633.1" cy="174.5" r="7.6" fill="#f58518" stroke="#ffffff" stroke-width="1.2"/>
<circle cx="566.1" cy="191.1" r="7.6" fill="#f58518" stroke="#ffffff" stroke-width="1.2"/>
<circle cx="742.9" cy="159.0" r="6.8" fill="#e45756" stroke="#ffffff" stroke-width="1.2"/>
<circle cx="639.0" cy="133.6" r="8.8" fill="#f58518" stroke="#ffffff" stroke-width="1.2"/>
<circle cx="594.0" cy="92.7" r="6.3" fill="#f58518" stroke="#ffffff" stroke-width="1.2"/>
<circle cx="652.1" cy="144.4" r="8.2" fill="#f58518" stroke="#ffffff" stroke-width="1.2"/>
<circle cx="660.5" cy="173.9" r="6.8" fill="#f58518" stroke="#ffffff" stroke-width="1.2"/>
<circle cx="569.7" cy="174.1" r="7.2" fill="#f58518" stroke="#ffffff" stroke-width="1.2"/>
<circle cx="501.2" cy="146.3" r="7.9" fill="#f58518" stroke="#ffffff" stroke-width="1.2"/>
<circle cx="521.9" cy="109.5" r="6.3" fill="#f58518" stroke="#ffffff" stroke-width="1.2"/>
<circle cx="382.5" cy="101.7" r="6.8" fill="#f58518" stroke="#ffffff" stroke-width="1.2"/>
<circle cx="452.0" cy="122.5" r="7.2" fill="#f58518" stroke="#ffffff" stroke-width="1.2"/>
<circle cx="523.7" cy="163.4" r="8.2" fill="#f58518" stroke="#ffffff" stroke-width="1.2"/>
<circle cx="557.3" cy="126.0" r="7.6" fill="#f58518" stroke="#ffffff" stroke-width="1.2"/>
<circle cx="503.3" cy="124.9" r="6.3" fill="#f58518" stroke="#ffffff" stroke-width="1.2"/>
<circle cx="434.3" cy="163.6" r="6.3" fill="#f58518" stroke="#ffffff" stroke-width="1.2"/>
<circle cx="554.9" cy="134.5" r="8.2" fill="#f58518" stroke="#ffffff" stroke-width="1.2"/>
<circle cx="529.6" cy="155.8" r="8.5" fill="#f58518" stroke="#ffffff" stroke-width="1.2"/>
<circle cx="496.5" cy="214.7" r="6.8" fill="#e45756" stroke="#ffffff" stroke-width="1.2"/>
<circle cx="370.9" cy="220.3" r="5.6" fill="#e45756" stroke="#ffffff" stroke-width="1.2"/>
<circle cx="537.2" cy="187.7" r="8.8" fill="#f58518" stroke="#ffffff" stroke-width="1.2"/>
<circle cx="901.1" cy="149.1" r="5.6" fill="#e45756" stroke="#ffffff" stroke-width="1.2"/>
<circle cx="458.6" cy="246.8" r="5.6" fill="#eeca3b" stroke="#ffffff" stroke-width="1.2"/>
<circle cx="346.5" cy="189.7" r="5.6" fill="#e45756" stroke="#ffffff" stroke-width="1.2"/>
<circle cx="513.4" cy="90.9" r="5.6" fill="#f58518" stroke="#ffffff" stroke-width="1.2"/>
<circle cx="792.4" cy="96.5" r="5.6" fill="#e45756" stroke="#ffffff" stroke-width="1.2"/>
<circle cx="814.3" cy="115.5" r="5.6" fill="#e45756" stroke="#ffffff" stroke-width="1.2"/>
<circle cx="811.5" cy="141.1" r="5.6" fill="#e45756" stroke="#ffffff" stroke-width="1.2"/>
<circle cx="825.1" cy="179.2" r="5.6" fill="#e45756" stroke="#ffffff" stroke-width="1.2"/>
<circle cx="681.1" cy="119.6" r="5.6" fill="#f58518" stroke="#ffffff" stroke-width="1.2"/>
<circle cx="428.4" cy="185.8" r="5.6" fill="#f58518" stroke="#ffffff" stroke-width="1.2"/>
<circle cx="650.9" cy="77.6" r="5.6" fill="#f58518" stroke="#ffffff" stroke-width="1.2"/>
<circle cx="696.4" cy="90.0" r="5.6" fill="#f58518" stroke="#ffffff" stroke-width="1.2"/>
<circle cx="299.1" cy="70.0" r="5.6" fill="#f58518" stroke="#ffffff" stroke-width="1.2"/>
<circle cx="755.4" cy="316.8" r="8.8" fill="#54a24b" stroke="#ffffff" stroke-width="1.2"/>
<circle cx="977.2" cy="362.6" r="10.6" fill="#54a24b" stroke="#ffffff" stroke-width="1.2"/>
<circle cx="1016.6" cy="415.4" r="5.6" fill="#54a24b" stroke="#ffffff" stroke-width="1.2"/>
<circle cx="1056.9" cy="409.6" r="5.6" fill="#54a24b" stroke="#ffffff" stroke-width="1.2"/>
<circle cx="1090.1" cy="399.6" r="5.6" fill="#54a24b" stroke="#ffffff" stroke-width="1.2"/>
<circle cx="987.1" cy="353.2" r="11.3" fill="#54a24b" stroke="#ffffff" stroke-width="1.2"/>
<circle cx="1130.0" cy="364.6" r="5.6" fill="#54a24b" stroke="#ffffff" stroke-width="1.2"/>
<circle cx="1067.9" cy="370.4" r="6.3" fill="#54a24b" stroke="#ffffff" stroke-width="1.2"/>
<circle cx="1046.3" cy="383.3" r="6.3" fill="#54a24b" stroke="#ffffff" stroke-width="1.2"/>
<circle cx="1129.7" cy="349.2" r="5.6" fill="#54a24b" stroke="#ffffff" stroke-width="1.2"/>
<circle cx="733.6" cy="354.2" r="5.6" fill="#54a24b" stroke="#ffffff" stroke-width="1.2"/>
<circle cx="1117.1" cy="379.6" r="5.6" fill="#54a24b" stroke="#ffffff" stroke-width="1.2"/>
<circle cx="795.2" cy="302.6" r="7.2" fill="#54a24b" stroke="#ffffff" stroke-width="1.2"/>
<circle cx="892.4" cy="364.4" r="8.5" fill="#54a24b" stroke="#ffffff" stroke-width="1.2"/>
<circle cx="913.6" cy="359.7" r="9.1" fill="#54a24b" stroke="#ffffff" stroke-width="1.2"/>
<circle cx="950.1" cy="368.7" r="7.2" fill="#54a24b" stroke="#ffffff" stroke-width="1.2"/>
<circle cx="930.6" cy="377.9" r="7.2" fill="#54a24b" stroke="#ffffff" stroke-width="1.2"/>
<circle cx="951.9" cy="385.8" r="7.2" fill="#54a24b" stroke="#ffffff" stroke-width="1.2"/>
<circle cx="978.5" cy="375.3" r="7.2" fill="#54a24b" stroke="#ffffff" stroke-width="1.2"/>
<circle cx="977.2" cy="385.0" r="7.2" fill="#54a24b" stroke="#ffffff" stroke-width="1.2"/>
<circle cx="927.6" cy="392.8" r="6.8" fill="#54a24b" stroke="#ffffff" stroke-width="1.2"/>
<circle cx="900.1" cy="385.2" r="6.8" fill="#54a24b" stroke="#ffffff" stroke-width="1.2"/>
<circle cx="537.4" cy="268.8" r="7.6" fill="#72b7b2" stroke="#ffffff" stroke-width="1.2"/>
<circle cx="202.9" cy="263.6" r="8.8" fill="#72b7b2" stroke="#ffffff" stroke-width="1.2"/>
<circle cx="94.6" cy="286.0" r="5.6" fill="#72b7b2" stroke="#ffffff" stroke-width="1.2"/>
<circle cx="70.0" cy="257.6" r="5.6" fill="#72b7b2" stroke="#ffffff" stroke-width="1.2"/>
<circle cx="82.3" cy="241.5" r="5.6" fill="#72b7b2" stroke="#ffffff" stroke-width="1.2"/>
<circle cx="73.0" cy="273.1" r="5.6" fill="#72b7b2" stroke="#ffffff" stroke-width="1.2"/>
<circle cx="123.7" cy="232.9" r="5.6" fill="#72b7b2" stroke="#ffffff" stroke-width="1.2"/>
<circle cx="114.5" cy="268.1" r="5.6" fill="#72b7b2" stroke="#ffffff" stroke-width="1.2"/>
<circle cx="131.1" cy="289.5" r="5.6" fill="#72b7b2" stroke="#ffffff" stroke-width="1.2"/>
<circle cx="115.8" cy="249.7" r="5.6" fill="#72b7b2" stroke="#ffffff" stroke-width="1.2"/>
<circle cx="377.8" cy="294.2" r="6.8" fill="#72b7b2" stroke="#ffffff" stroke-width="1.2"/>
<circle cx="278.4" cy="300.1" r="5.6" fill="#72b7b2" stroke="#ffffff" stroke-width="1.2"/>
<circle cx="294.8" cy="315.7" r="5.6" fill="#72b7b2" stroke="#ffffff" stroke-width="1.2"/>
<circle cx="783.0" cy="245.7" r="7.6" fill="#72b7b2" stroke="#ffffff" stroke-width="1.2"/>
<circle cx="914.8" cy="234.2" r="7.2" fill="#72b7b2" stroke="#ffffff" stroke-width="1.2"/>
<circle cx="879.9" cy="232.6" r="6.3" fill="#72b7b2" stroke="#ffffff" stroke-width="1.2"/>
<circle cx="904.3" cy="247.8" r="6.3" fill="#72b7b2" stroke="#ffffff" stroke-width="1.2"/>
<circle cx="905.7" cy="221.3" r="6.3" fill="#72b7b2" stroke="#ffffff" stroke-width="1.2"/>
<circle cx="809.1" cy="273.4" r="7.2" fill="#54a24b" stroke="#ffffff" stroke-width="1.2"/>
<circle cx="942.0" cy="290.6" r="6.8" fill="#54a24b" stroke="#ffffff" stroke-width="1.2"/>
<circle cx="940.1" cy="306.2" r="8.2" fill="#54a24b" stroke="#ffffff" stroke-width="1.2"/>
<circle cx="821.7" cy="265.1" r="6.3" fill="#eeca3b" stroke="#ffffff" stroke-width="1.2"/>
<circle cx="1070.8" cy="287.6" r="5.6" fill="#54a24b" stroke="#ffffff" stroke-width="1.2"/>
<circle cx="990.4" cy="325.3" r="7.2" fill="#54a24b" stroke="#ffffff" stroke-width="1.2"/>
<circle cx="1013.4" cy="310.8" r="6.8" fill="#54a24b" stroke="#ffffff" stroke-width="1.2"/>
<circle cx="781.7" cy="278.9" r="6.8" fill="#54a24b" stroke="#ffffff" stroke-width="1.2"/>
<circle cx="950.1" cy="325.1" r="7.9" fill="#54a24b" stroke="#ffffff" stroke-width="1.2"/>
<circle cx="1029.9" cy="340.5" r="6.8" fill="#54a24b" stroke="#ffffff" stroke-width="1.2"/>
<circle cx="1039.9" cy="350.3" r="6.8" fill="#54a24b" stroke="#ffffff" stroke-width="1.2"/>
<circle cx="1062.3" cy="329.7" r="6.3" fill="#54a24b" stroke="#ffffff" stroke-width="1.2"/>
<circle cx="648.9" cy="298.5" r="6.8" fill="#54a24b" stroke="#ffffff" stroke-width="1.2"/>
<circle cx="597.9" cy="374.9" r="8.5" fill="#eeca3b" stroke="#ffffff" stroke-width="1.2"/>
<circle cx="618.8" cy="307.4" r="6.3" fill="#eeca3b" stroke="#ffffff" stroke-width="1.2"/>
<circle cx="585.9" cy="408.0" r="5.6" fill="#eeca3b" stroke="#ffffff" stroke-width="1.2"/>
<circle cx="613.2" cy="424.4" r="5.6" fill="#eeca3b" stroke="#ffffff" stroke-width="1.2"/>
<circle cx="525.7" cy="398.9" r="5.6" fill="#eeca3b" stroke="#ffffff" stroke-width="1.2"/>
<circle cx="534.2" cy="414.5" r="5.6" fill="#eeca3b" stroke="#ffffff" stroke-width="1.2"/>
<circle cx="640.6" cy="412.7" r="5.6" fill="#eeca3b" stroke="#ffffff" stroke-width="1.2"/>
<circle cx="569.6" cy="423.5" r="5.6" fill="#eeca3b" stroke="#ffffff" stroke-width="1.2"/>
<circle cx="535.2" cy="310.4" r="7.2" fill="#b279a2" stroke="#ffffff" stroke-width="1.2"/>
<circle cx="415.5" cy="352.9" r="6.3" fill="#b279a2" stroke="#ffffff" stroke-width="1.2"/>
<circle cx="335.8" cy="375.0" r="8.5" fill="#b279a2" stroke="#ffffff" stroke-width="1.2"/>
<circle cx="206.2" cy="390.5" r="5.6" fill="#b279a2" stroke="#ffffff" stroke-width="1.2"/>
<circle cx="310.1" cy="389.1" r="8.2" fill="#b279a2" stroke="#ffffff" stroke-width="1.2"/>
<circle cx="259.8" cy="408.2" r="6.3" fill="#b279a2" stroke="#ffffff" stroke-width="1.2"/>
<circle cx="324.9" cy="410.1" r="6.3" fill="#b279a2" stroke="#ffffff" stroke-width="1.2"/>
<circle cx="248.6" cy="396.5" r="6.3" fill="#b279a2" stroke="#ffffff" stroke-width="1.2"/>
<circle cx="248.0" cy="381.3" r="6.3" fill="#b279a2" stroke="#ffffff" stroke-width="1.2"/>
<circle cx="291.1" cy="411.8" r="6.3" fill="#b279a2" stroke="#ffffff" stroke-width="1.2"/>
<circle cx="112.4" cy="632.3" r="5.6" fill="#4c78a8" stroke="#ffffff" stroke-width="1.2"/>
<circle cx="199.6" cy="643.3" r="9.1" fill="#4c78a8" stroke="#ffffff" stroke-width="1.2"/>
<circle cx="173.5" cy="613.1" r="5.6" fill="#4c78a8" stroke="#ffffff" stroke-width="1.2"/>
<circle cx="134.7" cy="662.7" r="5.6" fill="#4c78a8" stroke="#ffffff" stroke-width="1.2"/>
<circle cx="222.3" cy="615.8" r="5.6" fill="#4c78a8" stroke="#ffffff" stroke-width="1.2"/>
<circle cx="248.9" cy="684.0" r="6.8" fill="#4c78a8" stroke="#ffffff" stroke-width="1.2"/>
<circle cx="244.4" cy="710.0" r="5.6" fill="#4c78a8" stroke="#ffffff" stroke-width="1.2"/>
<circle cx="305.0" cy="702.5" r="5.6" fill="#4c78a8" stroke="#ffffff" stroke-width="1.2"/>
<circle cx="255.5" cy="634.4" r="5.6" fill="#4c78a8" stroke="#ffffff" stroke-width="1.2"/>
<circle cx="350.8" cy="646.1" r="7.6" fill="#4c78a8" stroke="#ffffff" stroke-width="1.2"/>
<circle cx="434.3" cy="656.3" r="5.6" fill="#4c78a8" stroke="#ffffff" stroke-width="1.2"/>
<circle cx="398.6" cy="668.5" r="5.6" fill="#4c78a8" stroke="#ffffff" stroke-width="1.2"/>
<circle cx="391.4" cy="624.6" r="5.6" fill="#4c78a8" stroke="#ffffff" stroke-width="1.2"/>
<circle cx="430.3" cy="638.4" r="5.6" fill="#4c78a8" stroke="#ffffff" stroke-width="1.2"/>
<circle cx="184.9" cy="666.4" r="5.6" fill="#4c78a8" stroke="#ffffff" stroke-width="1.2"/>
<circle cx="134.8" cy="619.5" r="5.6" fill="#4c78a8" stroke="#ffffff" stroke-width="1.2"/>
<circle cx="113.7" cy="647.8" r="5.6" fill="#4c78a8" stroke="#ffffff" stroke-width="1.2"/>
<g font-size="11" fill="#24292f">
<text x="650.1" y="202.0">services_monitor.py</text>
<text x="993.1" y="347.2">FakeSession</text>
<text x="616.8" y="137.5">Any</text>
<text x="694.6" y="184.1">cargar_ajustes()</text>
<text x="205.6" y="637.3">Services Monitor</text>
<text x="777.0" y="167.4">ConfigError</text>
<text x="543.2" y="181.7">main()</text>
<text x="761.4" y="310.8">_fakes.py</text>
<text x="208.9" y="257.6">TestConstruirServicio</text>
<text x="898.4" y="358.4">servicio()</text>
<text x="603.9" y="368.9">TestEstado</text>
<text x="341.8" y="369.0">TestGraciaYTransicion…</text>
<text x="668.9" y="223.4">Path</text>
<text x="722.7" y="152.3">construir_servicios()</text>
<text x="529.7" y="157.4">Monitor</text>
<text x="946.1" y="300.2">TestMonitorRun</text>
<text x="316.1" y="383.1">.paso()</text>
<text x="622.6" y="154.3">Resultado</text>
<text x="507.2" y="140.3">Notifier</text>
<text x="956.1" y="319.1">TestNotifier</text>
<text x="639.1" y="168.5">cargar_estado()</text>
<text x="563.3" y="120.0">.__init__()</text>
<text x="543.4" y="262.8">test_config.py</text>
<text x="789.0" y="239.7">TestCargarAjustes</text>
<text x="356.8" y="640.1">Ejecutar como servici…</text>
<text x="565.3" y="220.0">cargar_dotenv()</text>
<text x="458.0" y="116.5">.enviar()</text>
<text x="801.2" y="296.6">test_checker.py</text>
<text x="936.6" y="371.9">.test_codigo_no_valid…</text>
<text x="920.8" y="228.2">._env()</text>
<text x="815.1" y="267.4">test_monitor.py</text>
<text x="541.2" y="304.4">test_transitions.py</text>
<text x="388.5" y="95.7">._scrub()</text>
<text x="933.6" y="386.8">.test_agota_reintento…</text>
<text x="383.8" y="288.2">TestConstruirServicios</text>
<text x="948.0" y="284.6">ajustes()</text>
<text x="654.9" y="292.5">test_state.py</text>
<text x="254.9" y="678.0">Configuración</text>
<text x="849.4" y="141.7">Exception</text>
<text x="600.0" y="86.7">Event</text>
<text x="1073.9" y="364.4">.request()</text>
<text x="910.3" y="241.8">.test_falta_token()</text>
<text x="1068.3" y="323.7">.test_error_red_no_fi…</text>
<text x="421.5" y="346.9">resultado()</text>
<text x="265.8" y="402.2">.test_baseline_no_ale…</text>
</g>
<text x="70" y="36" font-size="18" font-weight="bold" fill="#24292f">Grafo del proyecto — 139 nodos · 251 aristas</text>
</svg>